# xmcd
#
# Track frame offsets: 
#        182
#        12047
#        23795
#        33432
#        44517
#        54722
#        65987
#        77857
#        90037
#        102267
#        114612
#
# Disc length: 1687 seconds
#
# Revision: 0
# Processed by: cddbd v1.4PL0 Copyright (c) Steve Scherf et al.
# Submitted via: ExactAudioCopy v0.90b3
#
DISCID=8806950b
DTITLE=George Jones - Greatest Country Hits Of The Sixties
DYEAR=1900
DGENRE=Country
TTITLE0=She Thinks I Still Care
TTITLE1=Least Of All
TTITLE2=The Race Is On
TTITLE3=Not What I Had In Mind
TTITLE4=Your Heart Turned Left (And I Was On The Right)
TTITLE5=Big Fool Of The Year
TTITLE6=Where Does A Little Tear Come From?
TTITLE7=A Girl I Used To Know
TTITLE8=You Comb Her Hair
TTITLE9=Sometimes You Just Can't Win
TTITLE10=We Must Have Been Out Of Our Minds (With Melba Montgomery)
EXTD=
EXTT0=
EXTT1=
EXTT2=
EXTT3=
EXTT4=
EXTT5=
EXTT6=
EXTT7=
EXTT8=
EXTT9=
EXTT10=
PLAYORDER=
